<?xml version="1.0" encoding="UTF-8"?>
<svg width="1024px" height="1024px" viewBox="0 0 1024 1024" version="1.1" xmlns="http://www.w3.org/2000/svg">
    <title>Bubble</title>
    <g id="Bubble" stroke="none" fill="none" fill-rule="evenodd">
        <path fill="#FFFFFF" d="M331.699,355.577 L328.434,355.818 L325.184,356.219 L321.958,356.779 L318.764,357.496 L315.608,358.369 L312.499,359.396 L309.444,360.575 L306.451,361.901 L303.527,363.373 L300.678,364.987 L297.912,366.739 L295.235,368.624 L292.654,370.638 L290.175,372.777 L287.803,375.035 L285.546,377.406 L283.407,379.885 L281.393,382.466 L279.508,385.143 L277.756,387.909 L276.142,390.758 L274.670,393.683 L273.343,396.676 L272.165,399.730 L271.138,402.839 L270.265,405.995 L269.547,409.189 L268.988,412.415 L268.587,415.665 L268.346,418.930 L268.266,422.203 L268.266,587.686 L268.346,590.959 L268.587,594.224 L268.988,597.474 L269.547,600.700 L270.265,603.894 L271.138,607.050 L272.165,610.159 L273.343,613.213 L274.670,616.207 L276.142,619.131 L277.756,621.980 L279.508,624.746 L281.393,627.423 L283.407,630.004 L285.546,632.483 L287.803,634.854 L290.175,637.112 L292.654,639.251 L295.235,641.265 L297.912,643.150 L300.678,644.902 L303.527,646.516 L306.451,647.988 L309.444,649.314 L312.499,650.493 L315.608,651.520 L318.764,652.393 L321.958,653.110 L325.184,653.670 L328.434,654.071 L331.699,654.312 L334.972,654.392 L370.891,654.392 L370.891,736.492 L487.003,654.392 L687.745,654.392 L691.018,654.312 L694.284,654.071 L697.533,653.670 L700.759,653.110 L703.954,652.393 L707.109,651.520 L710.218,650.493 L713.273,649.314 L716.266,647.988 L719.190,646.516 L722.039,644.902 L724.805,643.150 L727.482,641.265 L730.063,639.251 L732.542,637.112 L734.914,634.854 L737.171,632.483 L739.310,630.004 L741.324,627.423 L743.210,624.746 L744.961,621.980 L746.575,619.131 L748.047,616.207 L749.374,613.213 L750.552,610.159 L751.579,607.050 L752.452,603.894 L753.170,600.700 L753.730,597.474 L754.130,594.224 L754.371,590.959 L754.452,587.686 L754.452,422.203 L754.371,418.930 L754.130,415.665 L753.730,412.415 L753.170,409.189 L752.452,405.995 L751.579,402.839 L750.552,399.730 L749.374,396.676 L748.047,393.683 L746.575,390.758 L744.961,387.909 L743.210,385.143 L741.324,382.466 L739.310,379.885 L737.171,377.406 L734.914,375.035 L732.542,372.777 L730.063,370.638 L727.482,368.624 L724.805,366.739 L722.039,364.987 L719.190,363.373 L716.266,361.901 L713.273,360.575 L710.218,359.396 L707.109,358.369 L703.954,357.496 L700.759,356.779 L697.533,356.219 L694.284,355.818 L691.018,355.577 L687.745,355.497 L334.972,355.497 Z M397.076,519.887 L396.295,520.524 L395.484,521.121 L394.645,521.678 L393.779,522.193 L392.889,522.665 L391.977,523.093 L391.045,523.476 L390.096,523.812 L389.131,524.102 L388.153,524.343 L387.164,524.537 L386.167,524.682 L385.164,524.777 L384.158,524.823 L383.151,524.820 L382.145,524.768 L381.142,524.666 L380.146,524.515 L379.159,524.315 L378.182,524.067 L377.219,523.772 L376.272,523.430 L375.342,523.041 L374.433,522.607 L373.546,522.130 L372.684,521.609 L371.848,521.047 L371.040,520.444 L370.264,519.803 L369.519,519.124 L368.809,518.409 L368.135,517.661 L367.498,516.880 L366.901,516.069 L366.344,515.229 L365.829,514.364 L365.356,513.474 L364.929,512.562 L364.546,511.630 L364.210,510.680 L363.920,509.715 L363.678,508.737 L363.485,507.749 L363.340,506.752 L363.245,505.749 L363.198,504.742 L363.202,503.735 L363.254,502.729 L363.356,501.727 L363.507,500.731 L363.707,499.743 L363.955,498.767 L364.250,497.804 L364.592,496.856 L364.981,495.927 L365.414,495.017 L365.892,494.130 L366.413,493.268 L366.975,492.432 L367.578,491.625 L368.219,490.848 L368.898,490.104 L369.613,489.394 L370.361,488.719 L442.199,427.144 L442.978,426.509 L443.788,425.912 L444.625,425.356 L445.489,424.841 L446.377,424.370 L447.288,423.942 L448.218,423.560 L449.165,423.223 L450.128,422.934 L451.104,422.692 L452.091,422.498 L453.086,422.352 L454.087,422.256 L455.092,422.208 L456.097,422.210 L457.101,422.261 L458.102,422.362 L459.097,422.511 L460.083,422.708 L461.058,422.954 L462.020,423.247 L462.966,423.587 L463.895,423.973 L464.803,424.404 L465.690,424.879 L466.552,425.397 L467.387,425.956 L468.195,426.556 L468.972,427.194 L469.716,427.870 L470.427,428.581 L471.102,429.327 L519.697,485.696 L568.292,429.327 L568.967,428.581 L569.677,427.870 L570.422,427.194 L571.199,426.556 L572.006,425.956 L572.842,425.397 L573.704,424.879 L574.591,424.404 L575.499,423.973 L576.428,423.587 L577.374,423.247 L578.336,422.954 L579.311,422.708 L580.297,422.511 L581.292,422.362 L582.292,422.261 L583.297,422.210 L584.302,422.208 L585.307,422.256 L586.308,422.352 L587.303,422.498 L588.289,422.692 L589.265,422.934 L590.228,423.223 L591.176,423.560 L592.106,423.942 L593.016,424.370 L593.904,424.841 L594.768,425.356 L595.606,425.912 L596.416,426.509 L597.195,427.144 L669.032,488.719 L669.781,489.394 L670.496,490.104 L671.175,490.848 L671.816,491.625 L672.419,492.432 L672.981,493.268 L673.502,494.130 L673.979,495.017 L674.413,495.927 L674.801,496.856 L675.144,497.804 L675.439,498.767 L675.687,499.743 L675.887,500.731 L676.038,501.727 L676.140,502.729 L676.192,503.735 L676.195,504.742 L676.149,505.749 L676.053,506.752 L675.909,507.749 L675.715,508.737 L675.474,509.715 L675.184,510.680 L674.848,511.630 L674.465,512.562 L674.037,513.474 L673.565,514.364 L673.050,515.229 L672.493,516.069 L671.895,516.880 L671.259,517.661 L670.585,518.409 L669.874,519.124 L669.130,519.803 L668.353,520.444 L667.546,521.047 L666.710,521.609 L665.848,522.130 L664.961,522.607 L664.051,523.041 L663.122,523.430 L662.174,523.772 L661.211,524.067 L660.235,524.315 L659.247,524.515 L658.251,524.666 L657.249,524.768 L656.243,524.820 L655.236,524.823 L654.229,524.777 L653.227,524.682 L652.230,524.537 L651.241,524.343 L650.263,524.102 L649.298,523.812 L648.348,523.476 L647.416,523.093 L646.504,522.665 L645.614,522.193 L644.749,521.678 L643.909,521.121 L643.098,520.524 L642.318,519.887 L586.020,471.632 L535.243,530.533 L534.566,531.280 L533.854,531.993 L533.107,532.670 L532.328,533.309 L531.519,533.910 L530.681,534.470 L529.817,534.988 L528.928,535.463 L528.017,535.894 L527.086,536.280 L526.137,536.620 L525.173,536.912 L524.196,537.157 L523.207,537.354 L522.210,537.502 L521.207,537.601 L520.201,537.650 L519.193,537.650 L518.186,537.601 L517.183,537.502 L516.187,537.354 L515.198,537.157 L514.221,536.912 L513.256,536.620 L512.308,536.280 L511.376,535.894 L510.466,535.463 L509.577,534.988 L508.713,534.470 L507.875,533.910 L507.065,533.309 L506.287,532.670 L505.540,531.993 L504.828,531.280 L504.151,530.533 L453.374,471.632 Z"></path>
    </g>
</svg>
